<?xml version="1.0" encoding="UTF-8"?>
<svg id="Layer_1" data-name="Layer 1" xmlns="http://www.w3.org/2000/svg" viewBox="0 0 842.89 596.28">
  <defs>
    <style>
      .cls-1 {
        fill: #020202;
      }

      .cls-2 {
        fill: #231513;
      }

      .cls-3 {
        fill: #81a53f;
      }

      .cls-3, .cls-4 {
        stroke: #231f20;
        stroke-miterlimit: 10;
      }

      .cls-4 {
        fill: #272929;
      }
    </style>
  </defs>
  <rect class="cls-3" x=".5" y=".5" width="841.89" height="595.28"/>
  <path class="cls-4" d="M.5,474.65v121.13h841.89v-95.99c-162.4-49.11-366.54-14.97-420.94-18-26.52-1.48-72.04-7.69-194.81,1.22-116.84,8.47-156.76-8.36-226.14-8.36Z"/>
  <path class="cls-1" d="M332.78,478.6c-1.41-3.45-2.58-7.03-4.08-10.49-.74-1.72-1.54-3.44-1.94-5.27-.5-2.29-.4-4.67-.88-6.96-.81-3.82-3.36-7.23-6.8-9.09.91.26,1.82.52,2.73.78-.07-3.49-.15-6.98-.22-10.47,0-.29-.03-.63-.25-.82-.22-.19-.54-.17-.83-.13-2.38.32-4.64,1.36-6.44,2.95-.26.23-.53.48-.87.52-.64.09-1.1-.55-1.53-1.02-1.09-1.21-2.74-1.7-4.25-2.31-8.15-3.32-13.52-11.03-18.42-18.34-4.09-6.11-8.2-12.25-11.47-18.84-1.84-3.73-3.23-6.42-6.66-8.7-3.77-2.51-7.41-5.05-11.37-7.26-4.82-2.69-10.35-4.2-15.87-4.42-3.24-.13-6.53.18-9.71-.48-6.92-1.42-12.58-7.23-19.64-7.63-2.44-.14-4.87.4-7.31.54-6.01.35-11.88-1.67-17.86-2.35-14.06-1.62-28.49,4.12-42.26.86-3.84-.91-7.69-2.52-11.6-1.96-1.62.23-3.15.83-4.66,1.45-7.32,2.97-14.45,6.41-21.33,10.28-1.55.87-3.13,1.83-4.34,3.1-4.07,2.97-6.35,7.94-7.25,12.92-.94,5.14-.63,10.41-.75,15.63-.12,5.38-.69,10.73-1.26,16.08-.31,2.92-.64,5.91-1.93,8.54-1.8,3.67-5.32,6.33-6.9,10.1-2.35,5.65.19,12.29-1.53,18.16,1.93-2.98,4.18-5.75,6.72-8.23,2.4-2.35,5.19-4.7,5.87-7.98.47-2.29-.19-4.65-.16-6.99.05-3.27,1.43-6.35,2.12-9.54.86-3.96.63-8.06.6-12.12-.07-8.15.69-16.31,2.21-24.32.09,5.18.19,10.36.28,15.54.09,4.84,1.55,9.2,1.98,14.03.69,7.7,1.66,16.4.13,24.05-1.43,7.13-9.8,12.25-8.6,20,.25,1.6.96,3.08,1.53,4.6,2.69,7.17,2.19,15.48-1.36,22.27-.58,1.11-1.12,2.7-.07,3.38.51.32,1.17.23,1.75.4,1.42.41,1.86,2.16,2.55,3.48,1.62,3.07,5.98,4.31,8.96,2.53-5.95-14.92,1.72-28.29,7.08-41.89,1.77-4.48,2.9-9.2,4.84-13.61,1.95-4.41,4.9-8.61,9.21-10.75-3.07,3.29-6.26,6.8-7.3,11.18-1.04,4.38.95,9.84,5.31,10.98.44.11.91.19,1.28.46,1.48,1.07,0,3.72,1.13,5.16.99,1.26,3.23.4,3.78-1.11.52-1.41.05-2.96-.47-4.39,8.24,6.05,16.31,12.36,24.13,18.94,3.43,2.88,7.08,6.35,7.24,10.82.06,1.62,0,3.83,1.58,4.2.77.18,1.58-.24,2.34-.04,1.27.33,1.48,2,1.99,3.22.87,2.06,3.18,3.22,5.4,3.37s4.42-.51,6.56-1.17c-.19-2.05-2.56-3-4.2-4.25-4.64-3.55-4-10.84-7.31-15.66-.87-1.28-2.01-2.35-3.07-3.48-5.25-5.61-8.66-12.91-9.61-20.54-1.8-.18-3.61-.27-5.42-.3,2.72-1.26,5.43-2.68,8.35-2.67,13.14,3.98,27.42,4.16,40.66.49,3.18-.88,6.29-1.98,9.45-2.95.91-.28,1.84-.54,2.78-.69-.61,6.29-1.98,12.5-3.4,18.67-1.88,8.21-3.96,16.82-9.64,23.03-.42.46-.88.96-.91,1.58-.03.66.45,1.22.58,1.87.25,1.18-.67,2.32-.62,3.53.05,1.22,1.12,2.22,2.29,2.58,1.17.36,2.43.22,3.65.09.32-.03.66-.09.9-.3.26-.23.32-.6.38-.93,1.02-5.74,3.65-11.06,6.25-16.28,1.62-3.24,3.25-6.52,5.53-9.34,2.3-2.85,5.22-5.22,7.08-8.37,1.24-2.1,1.96-4.49,3.33-6.52.96-1.43,2.21-2.61,3.51-3.76,4.38,2.87,8.93,7.72,8.45,13.02-.15,1.72-.91,3.44-.53,5.13.24,1.06.91,1.96,1.44,2.91,2.94,5.31,1.28,11.86,1.68,17.92.06.88.21,1.85.89,2.42.62.52,1.54.56,2.13,1.12.66.62.66,1.64.93,2.51.58,1.87,2.52,3.06,4.46,3.33,1.94.28,3.9-.18,5.81-.63-.6-3.35-3.38-5.82-4.98-8.82-2.05-3.86-2.07-8.48-1.51-12.81.55-4.34,1.62-8.63,1.57-13-.07-6.19-2.36-12.59-.24-18.41.41,3.27.82,6.54,1.24,9.8.33,2.62,3.91.57,5.41.14,1.68-.48,3.37-.97,4.88-1.85,2.69-1.57,4.93-5.31,8.18-5.53,3.22-.22,6.03,2.61,9.31,2.3,1.08-.1,2.2-.55,3.23-.18,1.42.5,1.95,2.3,3.23,3.11.68.43,1.52.54,2.22.94,2.5,1.42,1.87,5.21,3.24,7.73,1.64,3.04,5.72,3.59,8.55,5.58,2.05,1.44,3.41,3.63,4.89,5.65,3.28,4.48,7.37,8.36,12.02,11.39,1.11.73,2.31,1.42,3.63,1.51.99.07,1.97-.2,2.93-.48,1.64-.47,3.6-1.09,5.3-1.18.57-.03,1.21-.02,1.62-.42.24-.23.35-.56.44-.88,1.09-3.95-.75-6.46-2.15-9.9v-.02Z"/>
  <path class="cls-1" d="M459.97,462.8s1.69-1.84,2.19-2.24c2.81-2.28,5.33-4.94,8.2-7.14,2.65-2.03,4.5-1.99,7.48-2.85.89-.26,5.12-2.29,6.64-3.06,1.52-.77,4.46-2.57,5.4-3.26s2.18-1.49,2.83-1.57c.66-.09,3.91-2.2,3.8.34,0,0,4.64-2.77,5.72-1.77,0,0,4.83-3.26,7.11.6,0,0,1.47,2,1.39,3.66-.08,1.66-.6,2.26-1.02,2.52-.42.26,0,.11,0,.11,0,0,.68,2.23-2.2,2.86,0,0,.76,1.74-4.35,2.92,0,0,1.47-.6,1.23.09-.24.69-2.99,2.29-4.64,2.14,0,0-.16,1.4-.29,1.83-.13.43-.89,2.06-1,2.69-.1.63-1.7,3.94-2.57,5.23s-1.55,3.37-2.52,4.23-2.49,3.32-4.33,3.92c-1.84.6-2.18.77-2.18.77,0,0-.34,1.63-.29,2.17.05.54.68,1.49,1.05,1.71.37.23,1.02.74,1.15.84.13.1.7-.03.84.27,0,0-.49.07-.59.11-.77.31-2.31-.62-2.78-.26-.69.53-.19,1.6-1.26,1.88,0,0-.51.3-.35.63.16.33-.28-.26-.12-.59,0,0-.3-.3-.1-.57s.56-.61-.28-.3c-.84.31-.6.53-1,.66-.39.13-.64.17-.66.13-.01-.04-.39.11-.41.33,0,0-.07-.36.16-.53,0,0-.45.24-.85.3-.41.06-.88.03-1.18.07-.3.04-.59.16-.71.13-.12-.03-.62.11-.7.31,0,0,.16-.51.5-.63.34-.11.83-.46,1.47-.54.64-.09,1.31-.33,1.74-.43.43-.1,1.26-.59,1.51-.73s.31-.74.42-1.14c.1-.4.45-1.69.55-2.37.1-.69.2-1.24.17-1.43s-.24-.3-.54-.24c-.3.06-1.97,1.34-2.39,1.57-.42.23-.42.46-.63.72-.21.26-.96.87-1.08.71-.12-.16-2.27,2.3-2.5,2.49s-.35.35-.35.35c0,0,.89.4,1.21.65s.45.95-.24.84-.8-.4-.96-.55c-.16-.15-.6-.25-.67-.21s-.44.8-1.07.72-1.17.72-1.59.65c-.42-.08-.63.63-.96.7-.33.08-.07.67-.05.8,0,0-.56-.46-.59-.72s-.12-1.12.42-1.43l.54-.3s-.77.04-1.71.02c-.94-.02-1.19-.29-1.82-.29s-1.47.15-1.66.08c0,0-.28-.11-.7.27,0,0,.03-.91,1-1.05.96-.13,1.63-.51,2.36-.32.73.19,2.2-.04,2.66-.02.45.02.87-.02,1.24-.34.37-.32,1.64-1.24,2.08-1.47.44-.23.84-.84,1.05-1.11s.02-.59-.54-.82c-.56-.23-.8-.95-1.99-1.43s-3.57-1.37-4.39-1.54c-.82-.17-2.66-.53-3.52-.59-.86-.06-4.13.11-5.26.44s-3.36,1.16-3.74,1.56l-.38.4s.19,2.53-2.22,1.91c0,0-.73.15-.87.36-.14.21-.61.46-.68,1.77v.67s-.72-.27-.94-1.92-.21-.99-.31-.99-.61-.63-.61-1.12-.21-.32-.23-.74c0,0-.8.25-1.17-.06-.36-.3-.71-.64-.29-.86.01,0,.03-.01.04-.02.49-.21-1.5-.23-.54-.74,0,0-1.08-.32.09-.46,0,0-.79-.57.31-.48,0,0-.74-1.49.68-1.58,1.42-.1,1.71.93,1.64,1.09,0,0,.26-.72.84-1.39.58-.67,1.24-1.26,2.22-3.41.98-2.15,3.5-4.4,3.65-4.57h0Z"/>
  <path class="cls-2" d="M721.71,450.44c.02-.1.03-.2.05-.3.05-.33.01-.73-.26-.93.18-.18.21-.45.19-.71-.02-.48-.08-.96-.14-1.44-.02-.22-.05-.45-.12-.66-.05-.12-.11-.23-.12-.35-.01-.13.03-.26.06-.39.13-.6-.01-1.25-.38-1.74.36-.35.25-1.05-.21-1.25.24-.22.36-.56.29-.88-.07-.32-.31-.59-.61-.69.18-.25.17-.64-.05-.87-.08-.09-.18-.15-.24-.26-.05-.1-.05-.22-.06-.33-.02-.18-.07-.35-.15-.51,0,0,.01,0,.02,0,.25-.17.33-.52.3-.82-.03-.3-.14-.6-.17-.9.3.2.68-.19.69-.55,0-.36-.19-.69-.21-1.05.5-.3.6-1.08.21-1.5.39-.35.54-.94.35-1.42s-.7-.82-1.21-.81c.06-.21.12-.42.06-.64-.05-.21-.26-.39-.47-.33.1-.46-.04-.96-.37-1.29.4-.09.6-.63.36-.96-.09-.12-.22-.22-.24-.37-.02-.15.09-.28.17-.41.28-.47.16-1.08.37-1.57.09-.21.24-.4.35-.61.37-.7.15-1.74-.6-1.97.22-.52.18-1.1.16-1.66-.02-.52-.05-1.05-.07-1.57-.03-.48-.04-.97-.24-1.41-.1-.24-.25-.46-.33-.71-.09-.32-.12-.77-.45-.83.4-.6,0-1.56-.71-1.7-.12-.3-.24-.6-.36-.91-.12-.29-.27-.62-.58-.68-.01-.38-.11-.75-.28-1.09,2.31-1.99,4.12-7.09,4.12-7.09,0,0,.52-.86-4.84,0-4.3.7-5.07,3.3-5.2,4.31-.05-.08-.11-.16-.18-.22-.24-.21-.63-.21-.87,0,.01-.28-.24-.51-.52-.58-.27-.06-.56,0-.83.05-.09-.28-.36-.47-.64-.52-.29-.06-.58-.02-.87.02-.13-.26-.51-.35-.74-.17-.03-.26-.28-.47-.54-.51-.26-.05-.53.03-.77.14-.06-.3-.15-.66-.44-.78-.16-.07-.35-.04-.51.02-.38.15-.68.48-.79.87-.14-.17-.4-.24-.6-.16-.21.09-.34.32-.31.55-.26-.16-.64-.05-.78.22-.09-.17-.3-.28-.49-.24-.19.03-.35.2-.37.4-.14-.12-.32-.24-.51-.23-.25,0-.45.24-.5.49-.06.25,0,.5.06.75-.14-.02-.28-.05-.41.01-.12.06-.2.23-.12.34-.14-.03-.29-.06-.41,0-.12.07-.18.26-.07.35-.2-.02-.36.18-.38.37,0,.01,0,.02,0,.04-.51-.37-1.48-.99-3.22-1.88-3.02-1.56-7.44.26-7.44.26.85,4.1,3.4,5.81,5.55,6.52-.11.02-.21.06-.3.12-.22.16-.35.43-.32.7-.28,0-.51.3-.44.57-.59.05-1.07.65-.98,1.24-.32-.02-.6.24-.68.55-.07.31.04.64.23.89-.25-.12-.59.06-.65.33-.23-.23-.61-.3-.91-.17-.09-.33-.26-.65-.55-.82-.29-.18-.72-.14-.9.14-.24-.26-.66-.35-.98-.21-.18-.28-.6-.37-.89-.19-.26-.43-.82-.64-1.3-.49-.03-.02-.03-.02-.06-.04-.02-.6-.7-1.09-1.27-.9-.24-.29-.64-.44-1.01-.36,0-.17-.15-.34-.32-.36-.18-.02-.35.12-.39.28-.33-.34-.7-.7-1.15-.86-.45-.16-1.03-.07-1.3.33-.33-.22-.78-.42-1.08-.2-.03,0-.05-.01-.07-.02-.11-.28-.45-.45-.73-.35.01-.18-.1-.32-.28-.37-.17-.06-.39.03-.48.19-.27-.16-.6-.19-.9-.11-.18-.26-.38-.52-.67-.66-.28-.14-.68-.1-.85.17-.36-.25-.87-.49-1.2-.21-.1-.18-.33-.25-.54-.23-.21.02-.4.1-.6.15-.37.07-.77-.01-1.13-.09-.29-.07-.57-.13-.83-.26-.25-.13-.48-.32-.76-.38-.28-.06-.64.1-.64.38-.28-.12-.58-.19-.89-.21-.1,0-.19,0-.29,0-.12,0-.25,0-.37,0-.39,0-.78.01-1.17.06-.38-.4-1.04-.21-1.59-.24-.37-.02-.73-.14-1.1-.17-.37-.03-.79.05-1.01.34-.25-.23-.54-.44-.87-.49-.33-.05-.72.1-.84.42-.37-.14-.82-.16-1.21-.07-.3-.24-.77-.23-1.06.02-.42-.17-.85-.35-1.29-.35-.44.01-.9.24-1.05.65-.02,0-.03,0-.05,0-.26-.16-.54-.32-.85-.29-.35.03-.64.29-.99.31-.18.01-.37-.05-.55-.04s-.39.13-.4.32c-.55-.07-1.08.14-1.58.36-.22.09-.44.18-.66.28-.32.13-.71.36-.69.71h-.06c-.34-.16-.78-.07-1.01.23-.23.02-.46.05-.69.07-.13.02-.26.03-.4.05-.34.03-.67.07-1.01.11-.2.02-.39.05-.58.07-.3.03-.64.09-.8.33-.23-.04-.48.09-.58.3-.28-.21-.76-.07-.87.27-.25-.06-.51-.12-.76-.07-.25.05-.49.26-.49.51-.27-.14-.66.1-.64.41-.32-.05-.66-.1-.96.03-.29.13-.5.51-.33.78-.18-.04-.36.1-.42.28-.07.17-.05.36-.03.55-.38.03-.61.54-.41.85-.23-.04-.46-.09-.68-.04-.22.05-.44.21-.49.43-.26-.2-.72-.01-.77.32-.48-.23-1.13.16-1.16.69-.55-.05-1.09.41-1.13.97-.47.07-.85.49-.91.96-.16-.09-.32-.15-.5-.16-.33-.01-.7.25-.66.59-.2-.22-.54-.31-.82-.22-.29.09-.51.35-.56.64-.33-.2-.74-.3-1.1-.16-.36.13-.61.55-.5.91-.36-.17-.75-.34-1.15-.27-.39.07-.74.51-.56.87-.47-.1-.97.03-1.33.34-.36.31-.55.8-.51,1.27-.68.45-1.12,1.24-1.16,2.05,0,.18.1.44.27.38-.22.2-.3.52-.33.82-.03.25-.03.53.1.75.13.22.44.35.66.21-.01.29-.02.59.08.87.1.27.33.52.61.55-.06.31-.09.64-.01.94.09.3.31.59.62.66.31.07.67-.14.71-.45.08.25.02.52.03.79,0,.26.1.56.36.66.12.05.25.03.39.03.36.02.67.24.99.43.02.07.05.15.1.22-.17.1-.25.32-.21.5-.58.43-.86,1.4-.51,2.02-.54.37-.77,1.14-.52,1.74-.42.14-.41.73-.32,1.17-.25-.06-.53.09-.63.33-.1.24-.01.54.2.68.14.09.33.14.38.29.03.09,0,.19-.02.28-.13.52-.26,1.04-.39,1.57-.07.29-.08.72.22.79-.44.62-.58,1.45-.36,2.19-.49.23-.8.78-.74,1.32.06.54.48,1.01,1.01,1.13-.1.24.13.54.38.53-.09.34-.18.68-.26,1.02-.03.13-.06.26-.02.39s.18.22.3.17c-.17.27-.34.55-.35.87-.01.32.21.67.52.67-.24.39-.27.9-.07,1.32-.29-.01-.66.05-.71.33-.05.26.26.46.52.47.24.01.48-.06.72-.04-.17.14-.32.3-.42.5-.21.39-.14.97.26,1.17-.45.32-.58,1.01-.28,1.48-.51.41-.67,1.2-.36,1.78-.4.41-.32,1.18.16,1.5-.46.55-.5,1.4-.09,1.99-.51.56-.56,1.47-.13,2.09-.42.17-.74.59-.77,1.05-.03.45.23.91.63,1.13-.15.22-.29.46-.26.72.03.26.32.5.55.38-.09.26-.19.53-.17.8.03.28.22.55.5.58-.22.36-.21.85.04,1.19.25.34.71.51,1.12.4-.06.49.21,1.01.66,1.24-.37.11-.54.59-.41.96.12.37.44.63.76.85.16.11.32.19.49.29-.8,5.36-.72,12.56-.72,12.56l.13.76c.01.73-.02,1.46-.08,2.19h0c-.06,1.47-.83,3.97-1.06,5.8h0c-.06.63-.11,1.26-.16,1.89-.02.27-.04.56.12.78.24.32.71.3,1.1.31.8.02,1.59.3,2.22.8.42.33.77.74,1.18,1.07.34.28,1.45,1.16,2.13,1.44.89.48,1.92.82,2.93,1.13.18.06.36.11.54.1.66-.04.96-.83.82-1.39-.14-.56-.52-1.07-.44-1.66.4.68,1.02,1.24,1.77,1.63.47.25,1.1-.13,1.01-.61-.18-.94-.38-1.88-.62-2.81-.2-.8-.44-1.61-.97-2.26-.43-.53-1.05-.93-1.56-1.41-.47-.44-.85-.94-1.23-1.44-.95-1.26-1.19-2.49-1.93-3.87-.11-4.25.88-9.24,2.02-13.44.22.02.45.05.68.07.17-.25.22-.59.12-.89.55.06,1-.65.72-1.12.71.17,1.48-.54,1.37-1.27.26.24.7.26.99.05.29-.22.39-.64.24-.97.64-.03,1.2-.63,1.18-1.27.72.52,1.76.05,2.3-.65.11-.14.21-.3.36-.41.16-.12.36-.16.55-.22.58-.21,1.04-.66,1.48-1.09.27-.27.55-.54.82-.8.17-.17.35-.34.5-.52.05-.06.09-.12.14-.18.21.17.48.26.75.22-.05.47.42.82.83,1.06.56.33,1.13.66,1.7.99-.47.73-.52,1.71-.12,2.49-.19.63-.33,1.44.19,1.85.07.06.16.11.22.18.09.1.11.25.13.39.09.61.18,1.22.28,1.83.04.25.08.51.19.74.16.33.46.58.8.69-.28.32-.29.85-.02,1.18.27.33.74.43,1.06.71.21.18.35.42.55.61.03.03-.14,2.72-.26,4.35-.04.6-.12,1.19-.19,1.79-.11.75-.17,1.92-.21,2.9h0c-.04.23-.07.44-.11.62,0,.06-.01.12-.03.17-.01.12-.03.23-.06.34v.02c-.18.73-.49,1.45-.75,2.16-.38,1.08-.55,2.42.14,3.27.84,1.02,2.38.75,3.54,1.3.75.35,1.32,1.03,1.94,1.58.95.84,2.1,1.43,3.31,1.7.13.03.28.05.4-.01.18-.11.22-.36.23-.58.06-.87.13-1.73.19-2.6.42.86.83,1.73,1.24,2.59.07.15.16.32.3.39.41.19.72-.46.74-.95.1-1.89-.62-3.8-1.9-5.06-.4-.4-.85-.73-1.24-1.15-.81-.87-1.15-2.69-1.51-3.88-.09-.28-.17-.57-.25-.85h0c-.25-1.71-.41-3.91-.23-5.64.06-.55.09-1.08.1-1.59.05-.04.1-.07.14-.12.13-.17.19-.37.26-.58.19-.66.38-1.31.58-1.97.16-.55.32-1.17.09-1.7.39-.16.59-.68.4-1.05.85.07,1.68-.67,1.71-1.52.86-.06,1.63-.76,1.77-1.61.52-.02,1.02-.3,1.29-.74,2.03.27,4.13-.06,5.98-.94,0,.03-.01.06-.01.09,0,.22.12.45.32.54.1.04.22.05.31.12.25.21-.07.7.17.92.08.08.21.09.29.17.21.18.03.55.16.8.12.22.41.25.65.25-.06.31-.06.65.09.93.16.28.51.46.8.33-.08.3-.16.61-.07.9.08.3.4.55.68.45.18-.06.29-.23.39-.39.21.25.58.34.88.22.19.36.59.56.99.61.4.06.81-.02,1.21-.09.07.29.33.52.63.58.3.05.61-.09.79-.33-.01.36-.02.74.15,1.06.16.32.55.56.89.43-.28.42-.55,1.03-.2,1.4.21.22.56.23.86.2-.11.4-.18.92.16,1.16.14.1.32.13.44.24.09.08.14.2.21.3.24.33.67.43,1.06.51.02.52.4.98.86,1.22.22.12.47.2.72.25.39,2.82.75,5.76-.1,8.48-.54,1.71-1.55,3.27-1.94,5.02-.06.23-.1.47-.05.7.06.34.28.61.49.88.93,1.23,1.56,2.69,1.82,4.2.1.56.15,1.15.43,1.65.22.4.58.71.93,1.01.39.33.78.67,1.17,1.01.33.28.67.57,1.07.73.41.16.9.16,1.25-.1.37-.28.49-.79.48-1.25,0-.47-.1-.93-.05-1.39.48.59.97,1.19,1.45,1.78.12.14.25.3.43.33.46.09.68-.54.68-1.01,0-1.62-.34-3.21-.63-4.8-.93-5.26-.96-10.7-.93-16.04,0-1.17.75-2.21.89-3.37.07-.57,0-1.15-.09-1.72.02-.11.05-.26.07-.36.12-.25.16-.55.1-.8.37-.3.79-.77.59-1.2-.05-.1-.14-.19-.17-.3-.02-.09-.02-.18,0-.27.07-.4.21-.78.27-1.19.05-.4,0-.85-.28-1.14.56-.25.91-.89.82-1.5.57-.21.94-.83.93-1.43.6.02,1.29.03,2.06.01.15.29.52.37.84.42-.05.15-.09.3-.05.45.03.15.18.28.33.25-.1.3,0,.63.12.93.02.07.05.16.08.23.05.16.12.32.26.4.14.07.38.12.34.28-.01.04-.04.07-.06.1-.25.28-.44.63-.42,1,.02.37.3.74.67.76-.14.47.05,1.02.45,1.3.05.03.1.07.13.12.05.09.01.19,0,.29-.05.34.28.67.61.64-.1.56-.14,1.12-.16,1.69,0,.15,0,.32.09.45.11.17.3.24.47.34,0,.16-.01.33-.03.49-.12,1.14-.24,2.29-.58,3.39-.31,1-.79,2.13-.25,3.04.13.22.32.41.47.63.29.42.43.93.51,1.44.42,2.94-1.25,5.8-1.28,8.78,0,.33.02.67.14.97.13.32.37.58.6.83.86.94,1.72,1.89,2.58,2.84.44.48,1.1,1,1.66.67.41-.25.46-.82.4-1.29-.05-.47-.16-.99.07-1.41.29,1.1,1.45,1.71,2.48,2.18.29.13.67.24.88,0,.12-.14.12-.33.11-.52-.07-1.36-.56-2.7-1.37-3.8-.13-.18-.27-.35-.36-.56-.1-.24-.12-.51-.13-.77-.14-2.24-.42-4.47-.85-6.68-.16-.82-.33-1.64-.28-2.47.04-.63.21-1.23.34-1.85.4-1.86.36-3.96.37-5.86,1.61-2.53,1.82-7.29,2.42-10.88.16-.17.24-.4.14-.6.42.2.98-.02,1.16-.45.28.2.59.33.93.38.07.01.14.01.19-.02.07-.05.08-.15.09-.24,0-.25.02-.49.02-.74.33.18.77.02.98-.29.21-.31.22-.71.17-1.09.2.07.45,0,.58-.18.13-.17.13-.43,0-.61.42-.12.8-.4,1.05-.78.25.05.49-.24.4-.47.22.01.42-.17.5-.38.08-.21.07-.44.06-.67.26.14.61.05.79-.18.18-.23.2-.57.07-.83.32.01.6-.27.68-.58.09-.31.04-.64,0-.96.49-.1.83-.68.68-1.16.22-.05.38-.26.44-.48.06-.22.17-.56.14-.79.24-.12.48-.24.71-.35,0-.2-.34-.32-.26-.51.02-.06.08-.1.13-.14.21-.19.13-.53.05-.8.19.01.26-.24.27-.42.02-.53-.04-1.05-.17-1.57-.03-.13-.07-.26,0-.38.03-.06.1-.11.14-.17.17-.24-.02-.58.1-.84.05-.11.14-.19.19-.3.16-.36-.29-.75-.2-1.13.04-.18.19-.32.28-.48.2-.32.18-.72.15-1.09-.01-.16-.12-.42-.28-.42.4-.4.58-.97.61-1.54.03-.51-.06-1.02-.17-1.52v.02ZM721.69,450.57c.01.19.02.38.02.57-.06-.18-.05-.37-.02-.57Z"/>
  <path class="cls-1" d="M583.26,455.67c.01-.46-.35-1.04-.9-1.06,1.22-.47.43-1.98.21-1.83,1.43-.99-.82-2.55-1-2.28.31-.47,1.11-.49.71-1.1-.32-.49-2.21-.55-2.46.01.23-.51,1.22-.81,1.16-1.45-.11-1.19-2.76-.86-3.46-.71-1.22.27-2.81.85-3.45,2.02.34-.79.23-1.49-.81-1.17-1.39.43-2.65,1.83-3.51,2.94.67-2.98-2.31-2.04-3.69-.98-1.51,1.17-2.58,2.77-3.98,4.07-3.26,3.02-7.6,2.14-11.58,3.05-1.44.33-2.47.94-3.93.38-1.13-.43-2.03-1.27-2.69-2.26-1.14-1.7-1.97-3.45-3.26-5.08-.87-1.1-2.05-2.21-3.35-3.01-.11-.18-.21-.34-.3-.46-.32-.45-.66-.54-.98-.54-.01-.03-.03-.05-.04-.08-.07-.17-.02-.4-.07-.54-.22-.54-.62-.57-1.21-.49-.69.1-.4.22-.64-.35-.64-1.55-1.04,1.31-1.53-.44-.15-.47-.44-1.33-.91-.54-.15.27.15,1.63-.2,1.7-.37.1-.49-1.36-1.04-.77-.25.25,0,1.28.02,1.6-.27-.37-.77-.42-.96.07-.15.39.1.95,0,1.38-.17.08-.35.21-.5.47-.1.17,0,.76,0,.76,0,0-1.78.57-1.5,1.78,0,0,1.04-.25,1.5-.37.47-.12.96-.02,1.09.15.12.17-.17.1-.17,1.09,0,.9.84,2.71,2.08,2.9-.1.27-.21.55-.34.85-.44.99-.77,2.12-.77,2.12l.4-.54c-.32.74-.37,1.8-.37,1.8.15-.44.54-1.53.39-.99-.15.54-.49,3.78-.52,4.89-.02,1.11-.4,1.78-.42,3.8-.02,2.02.27,4.86.57,5.92.3,1.06.27,2.84,1.36,5.16.36.76.79,1.47,1.23,2.1.73,1.57,1.96,2.69,3.46,3.35.64.55,1.31,1,2.16,1.28.27.09.63.17,1,.19.77.48,1.75.72,2.6.84.19.03.56.02.95-.03.05.27.24.5.46.66.17.12.39.19.63.21-.36,1.06-.68,1.96-.78,2.21-.28.67-.99,2.75-1.34,2.75s-.65-.05-1-.21-1.01-.53-1.54-.58c-.53-.05-.82-.16-1.03-.03-.21.13-.48-.11-.74.34,0,0,.36-.12.63,0s.38.34.66.31c.28-.03.65.08.8.17.15.09.23.26.44.34s.36.19-.16.18-1.81,0-2.64.05c-.83.05-1.33.12-1.65.36,0,0-.52-.04-.87.27,0,0,.79-.15.9-.04.12.12.39.2.83.19s.99-.19,1.39-.12,1.79.12,2.32.05.97-.19,1.13-.03c.16.17-.11.58-.77.76-.66.18-1,0-1.84.29,0,0-.36.2-.38.32,0,0-.49,0-.56.27,0,0,.45-.16.54-.11.09.05.23.08.77-.04.54-.12.91.19,1.43-.02.52-.2.96-.19,1.57-.47.61-.28,1.33-1.17,1.76-1.44s.93-.53,1.2-.3c.27.23,1.3.61,1.62.5.32-.11.18-.27.18-.27,0,0,.5-.03.52.19,0,0,.02-.54-.53-.66s-.85-.24-1.17-.39c-.33-.15-.77-.36-.78-.67,0-.31.42-2.53.5-2.99.03-.15.33-.77.71-1.53.33.02.68-.04.94-.13.15-.06.32-.14.48-.26.88.14,1.78.16,2.69.04.22-.03.64-.14,1.05-.3.2.04.39.08.59.11.04.34.25.59.54.76.19.11.43.17.66.17-.19,1.11-.35,2.07-.41,2.33-.17.71-.52,2.88-.87,2.94s-.65.05-1.02-.04c-.37-.1-1.08-.36-1.61-.32s-.84-.02-1.02.14c-.19.17-.49-.03-.68.46,0,0,.34-.17.62-.1.28.07.43.27.7.2.27-.07.66-.03.82.03.16.06.27.21.49.27.22.05.39.13-.13.2s-1.78.3-2.59.49c-.81.19-1.3.34-1.57.63,0,0-.52.04-.82.41,0,0,.75-.28.88-.18.13.09.42.14.85.05s.94-.35,1.35-.34c.41.01,1.79-.18,2.3-.33.51-.15.93-.35,1.11-.21.18.14,0,.59-.63.88s-.98.17-1.76.59c0,0-.32.26-.32.38,0,0-.48.07-.5.36,0,0,.42-.23.51-.19.1.04.24.04.75-.17.51-.21.93.03,1.41-.25.48-.29.92-.34,1.47-.72.55-.38,1.11-1.37,1.5-1.71.38-.34.83-.68,1.14-.49.31.18,1.38.39,1.68.23.3-.16.13-.3.13-.3,0,0,.49-.11.54.1,0,0-.07-.53-.63-.57s-.88-.1-1.22-.19c-.35-.09-.82-.23-.88-.53s0-2.56,0-3.03c0-.12.13-.58.31-1.18.04.02.08.04.13.05.54.15,1-.17,1.31-.57.13-.17.22-.37.27-.58.36-.06.72-.16,1.06-.31.95.14,2.06.14,2.79-.36.57.11,1.14.07,1.72-.22.34-.17.7-.38,1.05-.62.8-.02,1.69-.3,2.16-.89.51-.01,1-.17,1.44-.44.3-.19.63-.56.76-.95.17-.09.33-.19.49-.31.21-.16.49-.44.69-.76.49-.14.89-.48,1.16-.96.15-.27.22-.61.21-.94.34-.24.62-.58.83-.89.21-.32.47-.81.37-1.21.18-.27.32-.56.43-.85.16-.43.25-.9.11-1.34.52-.79.66-1.81-.02-2.48.05-.14.1-.29.14-.44.16-.65-.15-1.19-.63-1.24.01-.03.03-.06.04-.09.13-.39-.03-.81-.34-1.01.27-.25.52-.53.74-.84.21-.3.45-.67.31-1.06-.05-.14-.16-.24-.28-.32.57-.48.88-1.12.75-1.97.08,0,.13.02.16.03.46.07.81-.11,1.08-.38.2-.3.4-.4.59-.49.79-.1,1.68-.3,2.17-.99.4.1.79-.1.99-.43.11-.29-.04-.66-.2-.9.61.04,1.25.1,1.86-.03.74-.16,1.28-.75.79-1.5.17.25,1.96-1.09.86-2.05,1.14.25,1.75-1.43.98-1.5.43.04.62-.22.63-.54h0Z"/>
</svg>